<svg xmlns="http://www.w3.org/2000/svg" xmlns:xlink="http://www.w3.org/1999/xlink" width="1373pt" height="919pt" viewBox="0 0 1372.81 918.74"><g id="graph0" class="graph" transform="scale(1 1) rotate(0) translate(4 914.7422)"><title>G</title><polygon fill="#fff" stroke="transparent" points="-4 4 -4 -914.742 1368.811 -914.742 1368.811 4 -4 4"/><g id="node1" class="node"><title>http://dig.isi.edu/violent</title><ellipse cx="640" cy="-517.425" fill="none" stroke="#e377c2" rx="38.368" ry="16.03"/><text x="640" y="-513.725" fill="#000" font-family="Times,serif" font-size="14" text-anchor="middle">violent</text></g><g id="node16" class="node"><title>http://dig.isi.edu/placeholder_bonds</title><ellipse cx="728" cy="-600.952" fill="none" stroke="#e377c2" rx="84.292" ry="16.03"/><text x="728" y="-597.252" fill="#000" font-family="Times,serif" font-size="14" text-anchor="middle">placeholder_bonds</text></g><g id="edge31" class="edge"><title>http://dig.isi.edu/violent-&gt;http://dig.isi.edu/placeholder_bonds</title><path fill="none" stroke="#000" d="M647.9503,-533.3732C653.6508,-543.7151 662.0609,-557.0139 672,-566.6884 676.9936,-571.549 682.7962,-576.0423 688.7365,-580.0664"/><polygon fill="#000" stroke="#000" points="687.144 -583.201 697.46 -585.615 690.9 -577.295 687.144 -583.201"/><text x="681.5" y="-555.488" fill="#000" font-family="Times,serif" font-size="14" text-anchor="middle">has</text></g><g id="node22" class="node"><title>http://dig.isi.edu/meaningful_bonds</title><ellipse cx="914" cy="-600.952" fill="none" stroke="#e377c2" rx="83.377" ry="16.03"/><text x="914" y="-597.252" fill="#000" font-family="Times,serif" font-size="14" text-anchor="middle">meaningful_bonds</text></g><g id="edge12" class="edge"><title>http://dig.isi.edu/violent-&gt;http://dig.isi.edu/meaningful_bonds</title><path fill="none" stroke="#000" d="M668.5938,-528.204C674.6152,-530.2235 680.9707,-532.173 687,-533.6884 735.8957,-545.978 752.8391,-531.4154 799,-551.6884 808.8507,-556.0146 808.587,-561.478 818,-566.6884 830.2096,-573.4468 844.0065,-579.2928 857.2543,-584.1471"/><polygon fill="#000" stroke="#000" points="856.178 -587.479 866.773 -587.505 858.507 -580.878 856.178 -587.479"/><text x="827.5" y="-555.488" fill="#000" font-family="Times,serif" font-size="14" text-anchor="middle">has</text></g><g id="node2" class="node"><title>http://dig.isi.edu/BJSCategory</title><ellipse cx="805" cy="-433.898" fill="none" stroke="#e377c2" rx="62.452" ry="16.03"/><text x="805" y="-430.198" fill="#000" font-family="Times,serif" font-size="14" text-anchor="middle">BJSCategory</text></g><g id="edge50" class="edge"><title>http://dig.isi.edu/BJSCategory-&gt;http://dig.isi.edu/violent</title><path fill="none" stroke="#000" d="M776.2039,-448.3822C764.094,-454.48 749.8577,-461.6571 737,-468.1615 715.9498,-478.8102 692.3507,-490.7944 673.7004,-500.2763"/><polygon fill="#000" stroke="#000" points="672.035 -497.197 664.707 -504.849 675.208 -503.436 672.035 -497.197"/><text x="746.5" y="-471.962" fill="#000" font-family="Times,serif" font-size="14" text-anchor="middle">has</text></g><g id="node3" class="node"><title>http://dig.isi.edu/other</title><ellipse cx="727" cy="-517.425" fill="none" stroke="#e377c2" rx="31.226" ry="16.03"/><text x="727" y="-513.725" fill="#000" font-family="Times,serif" font-size="14" text-anchor="middle">other</text></g><g id="edge35" class="edge"><title>http://dig.isi.edu/BJSCategory-&gt;http://dig.isi.edu/other</title><path fill="none" stroke="#000" d="M789.9608,-450.0028C777.9334,-462.8825 760.942,-481.0779 747.6415,-495.3208"/><polygon fill="#000" stroke="#000" points="744.954 -493.07 740.687 -502.768 750.07 -497.848 744.954 -493.07"/><text x="782.5" y="-471.962" fill="#000" font-family="Times,serif" font-size="14" text-anchor="middle">has</text></g><g id="node5" class="node"><title>http://dig.isi.edu/drug</title><ellipse cx="805" cy="-517.425" fill="none" stroke="#e377c2" rx="28.983" ry="16.03"/><text x="805" y="-513.725" fill="#000" font-family="Times,serif" font-size="14" text-anchor="middle">drug</text></g><g id="edge33" class="edge"><title>http://dig.isi.edu/BJSCategory-&gt;http://dig.isi.edu/drug</title><path fill="none" stroke="#000" d="M805,-450.4002C805,-461.9548 805,-477.6416 805,-490.9344"/><polygon fill="#000" stroke="#000" points="801.5 -490.957 805 -500.957 808.5 -490.957 801.5 -490.957"/><text x="814.5" y="-471.962" fill="#000" font-family="Times,serif" font-size="14" text-anchor="middle">has</text></g><g id="node8" class="node"><title>http://dig.isi.edu/public_order</title><ellipse cx="913" cy="-517.425" fill="none" stroke="#e377c2" rx="60.623" ry="16.03"/><text x="913" y="-513.725" fill="#000" font-family="Times,serif" font-size="14" text-anchor="middle">public_order</text></g><g id="edge27" class="edge"><title>http://dig.isi.edu/BJSCategory-&gt;http://dig.isi.edu/public_order</title><path fill="none" stroke="#000" d="M825.0609,-449.413C841.9588,-462.4818 866.3131,-481.3174 885.1094,-495.8544"/><polygon fill="#000" stroke="#000" points="882.995 -498.644 893.047 -501.993 887.278 -493.107 882.995 -498.644"/><text x="878.5" y="-471.962" fill="#000" font-family="Times,serif" font-size="14" text-anchor="middle">has</text></g><g id="node24" class="node"><title>http://dig.isi.edu/property</title><ellipse cx="1036" cy="-517.425" fill="none" stroke="#e377c2" rx="43.682" ry="16.03"/><text x="1036" y="-513.725" fill="#000" font-family="Times,serif" font-size="14" text-anchor="middle">property</text></g><g id="edge2" class="edge"><title>http://dig.isi.edu/BJSCategory-&gt;http://dig.isi.edu/property</title><path fill="none" stroke="#000" d="M841.6026,-447.1331C883.3531,-462.2296 951.4497,-486.8525 994.9647,-502.587"/><polygon fill="#000" stroke="#000" points="993.8 -505.887 1004.394 -505.997 996.18 -499.305 993.8 -505.887"/><text x="951.5" y="-471.962" fill="#000" font-family="Times,serif" font-size="14" text-anchor="middle">has</text></g><g id="edge30" class="edge"><title>http://dig.isi.edu/other-&gt;http://dig.isi.edu/placeholder_bonds</title><path fill="none" stroke="#000" d="M709.6279,-531.323C700.0224,-540.7992 690.9583,-553.9036 696,-566.6884 697.4697,-570.4152 699.557,-573.9754 701.9703,-577.2955"/><polygon fill="#000" stroke="#000" points="699.353 -579.621 708.474 -585.011 704.705 -575.11 699.353 -579.621"/><text x="705.5" y="-555.488" fill="#000" font-family="Times,serif" font-size="14" text-anchor="middle">has</text></g><g id="edge34" class="edge"><title>http://dig.isi.edu/other-&gt;http://dig.isi.edu/meaningful_bonds</title><path fill="none" stroke="#000" d="M751.3274,-527.9818C756.4526,-530.0173 761.8637,-532.0296 767,-533.6884 799.2097,-544.091 810.5727,-536.8607 841,-551.6884 850.6716,-556.4015 851.2239,-560.4647 860,-566.6884 866.2265,-571.104 873.0033,-575.6191 879.5857,-579.8617"/><polygon fill="#000" stroke="#000" points="878.054 -583.035 888.371 -585.443 881.808 -577.127 878.054 -583.035"/><text x="869.5" y="-555.488" fill="#000" font-family="Times,serif" font-size="14" text-anchor="middle">has</text></g><g id="node4" class="node"><title>http://dig.isi.edu/bond_amount</title><ellipse cx="386" cy="-684.479" fill="none" stroke="#e377c2" rx="65.108" ry="16.03"/><text x="386" y="-680.779" fill="#000" font-family="Times,serif" font-size="14" text-anchor="middle">bond_amount</text></g><g id="node21" class="node"><title>http://dig.isi.edu/more_than_1000</title><ellipse cx="96" cy="-778.742" fill="none" stroke="#e377c2" rx="77.149" ry="16.03"/><text x="96" y="-775.042" fill="#000" font-family="Times,serif" font-size="14" text-anchor="middle">more_than_1000</text></g><g id="edge28" class="edge"><title>http://dig.isi.edu/bond_amount-&gt;http://dig.isi.edu/more_than_1000</title><path fill="none" stroke="#000" d="M346.2848,-697.388C294.6671,-714.1662 204.4288,-743.4978 147.571,-761.9792"/><polygon fill="#000" stroke="#000" points="146.481 -758.653 138.052 -765.073 148.644 -765.311 146.481 -758.653"/><text x="285.5" y="-722.542" fill="#000" font-family="Times,serif" font-size="14" text-anchor="middle">has</text></g><g id="node26" class="node"><title>http://dig.isi.edu/less_than_1000</title><ellipse cx="262" cy="-778.742" fill="none" stroke="#e377c2" rx="71.336" ry="16.03"/><text x="262" y="-775.042" fill="#000" font-family="Times,serif" font-size="14" text-anchor="middle">less_than_1000</text></g><g id="edge42" class="edge"><title>http://dig.isi.edu/bond_amount-&gt;http://dig.isi.edu/less_than_1000</title><path fill="none" stroke="#000" d="M363.3406,-699.8711C354.9776,-705.67 345.4769,-712.398 337,-718.7422 320.8183,-730.8528 303.1463,-744.9461 289.0229,-756.4296"/><polygon fill="#000" stroke="#000" points="286.687 -753.818 281.155 -762.855 291.115 -759.24 286.687 -753.818"/><text x="346.5" y="-722.542" fill="#000" font-family="Times,serif" font-size="14" text-anchor="middle">has</text></g><g id="edge6" class="edge"><title>http://dig.isi.edu/drug-&gt;http://dig.isi.edu/placeholder_bonds</title><path fill="none" stroke="#000" d="M782.2974,-527.8368C764.0586,-536.396 741.0012,-547.7337 738,-551.6884 733.0845,-558.1656 730.4224,-566.4535 729.0245,-574.3761"/><polygon fill="#000" stroke="#000" points="725.538 -574.054 727.832 -584.398 732.489 -574.881 725.538 -574.054"/><text x="747.5" y="-555.488" fill="#000" font-family="Times,serif" font-size="14" text-anchor="middle">has</text></g><g id="edge58" class="edge"><title>http://dig.isi.edu/drug-&gt;http://dig.isi.edu/meaningful_bonds</title><path fill="none" stroke="#000" d="M828.3676,-527.4957C850.9318,-537.2494 881.8658,-550.7105 883,-551.6884 890.6438,-558.2786 897.0417,-567.2249 902.0025,-575.6858"/><polygon fill="#000" stroke="#000" points="898.964 -577.425 906.812 -584.542 905.115 -574.084 898.964 -577.425"/><text x="905.5" y="-555.488" fill="#000" font-family="Times,serif" font-size="14" text-anchor="middle">has</text></g><g id="node6" class="node"><title>http://dig.isi.edu/Bureau_of_Justice_Statistics</title><ellipse cx="684" cy="-266.844" fill="none" stroke="#1f77b4" rx="122.159" ry="16.03"/><text x="684" y="-263.144" fill="#000" font-family="Times,serif" font-size="14" text-anchor="middle">Bureau_of_Justice_Statistics</text></g><g id="edge14" class="edge"><title>http://dig.isi.edu/Bureau_of_Justice_Statistics-&gt;http://dig.isi.edu/BJSCategory</title><path fill="none" stroke="#000" d="M695.8223,-283.1662C717.2023,-312.6836 762.3911,-375.0718 787.4088,-409.6114"/><polygon fill="#000" stroke="#000" points="784.607 -411.71 793.308 -417.756 790.276 -407.604 784.607 -411.71"/><text x="783" y="-346.671" fill="#000" font-family="Times,serif" font-size="14" text-anchor="middle">categorize</text></g><g id="node20" class="node"><title>http://dig.isi.edu/BJSCodes</title><ellipse cx="958" cy="-350.371" fill="none" stroke="#e377c2" rx="50.824" ry="16.03"/><text x="958" y="-346.671" fill="#000" font-family="Times,serif" font-size="14" text-anchor="middle">BJSCodes</text></g><g id="edge11" class="edge"><title>http://dig.isi.edu/Bureau_of_Justice_Statistics-&gt;http://dig.isi.edu/BJSCodes</title><path fill="none" stroke="#000" d="M736.519,-281.6308C757.2658,-287.5595 781.292,-294.5341 803,-301.1076 840.0655,-312.3317 881.9062,-325.6697 912.7658,-335.6346"/><polygon fill="#000" stroke="#000" points="911.788 -338.997 922.379 -338.745 913.942 -332.337 911.788 -338.997"/><text x="878" y="-304.908" fill="#000" font-family="Times,serif" font-size="14" text-anchor="middle">categorize</text></g><g id="node7" class="node"><title>http://dig.isi.edu/Louisiana</title><ellipse cx="1286" cy="-183.317" fill="none" stroke="#e377c2" rx="49.495" ry="16.03"/><text x="1286" y="-179.617" fill="#000" font-family="Times,serif" font-size="14" text-anchor="middle">Louisiana</text></g><g id="node10" class="node"><title>http://dig.isi.edu/LA_Charges</title><ellipse cx="1304" cy="-266.844" fill="none" stroke="#e377c2" rx="60.623" ry="16.03"/><text x="1304" y="-263.144" fill="#000" font-family="Times,serif" font-size="14" text-anchor="middle">LA_Charges</text></g><g id="edge38" class="edge"><title>http://dig.isi.edu/Louisiana-&gt;http://dig.isi.edu/LA_Charges</title><path fill="none" stroke="#000" d="M1289.5562,-199.8195C1292.0462,-211.3741 1295.4267,-227.0609 1298.2913,-240.3537"/><polygon fill="#000" stroke="#000" points="1294.923 -241.338 1300.451 -250.376 1301.766 -239.863 1294.923 -241.338"/><text x="1327" y="-221.381" fill="#000" font-family="Times,serif" font-size="14" text-anchor="middle">has_crimes</text></g><g id="edge16" class="edge"><title>http://dig.isi.edu/public_order-&gt;http://dig.isi.edu/placeholder_bonds</title><path fill="none" stroke="#000" d="M866.7917,-528.1253C831.5522,-536.4874 787.7722,-547.3892 780,-551.6884 768.2679,-558.178 757.1948,-567.9389 748.3065,-577.0648"/><polygon fill="#000" stroke="#000" points="745.641 -574.792 741.388 -584.495 750.764 -579.562 745.641 -574.792"/><text x="789.5" y="-555.488" fill="#000" font-family="Times,serif" font-size="14" text-anchor="middle">has</text></g><g id="edge20" class="edge"><title>http://dig.isi.edu/public_order-&gt;http://dig.isi.edu/meaningful_bonds</title><path fill="none" stroke="#000" d="M920.0144,-533.8569C922.0446,-539.4138 923.9856,-545.7233 925,-551.6884 926.2928,-559.2909 925.397,-567.4879 923.6645,-574.9723"/><polygon fill="#000" stroke="#000" points="920.292 -574.037 920.91 -584.614 927.023 -575.96 920.292 -574.037"/><text x="935.5" y="-555.488" fill="#000" font-family="Times,serif" font-size="14" text-anchor="middle">has</text></g><g id="node9" class="node"><title>http://dig.isi.edu/NewYork</title><ellipse cx="910" cy="-183.317" fill="none" stroke="#e377c2" rx="49.495" ry="16.03"/><text x="910" y="-179.617" fill="#000" font-family="Times,serif" font-size="14" text-anchor="middle">NewYork</text></g><g id="node11" class="node"><title>http://dig.isi.edu/NY_Charges</title><ellipse cx="886" cy="-266.844" fill="none" stroke="#e377c2" rx="61.537" ry="16.03"/><text x="886" y="-263.144" fill="#000" font-family="Times,serif" font-size="14" text-anchor="middle">NY_Charges</text></g><g id="edge9" class="edge"><title>http://dig.isi.edu/NewYork-&gt;http://dig.isi.edu/NY_Charges</title><path fill="none" stroke="#000" d="M905.2584,-199.8195C901.9055,-211.4885 897.3417,-227.3719 893.4983,-240.7478"/><polygon fill="#000" stroke="#000" points="890.13 -239.798 890.732 -250.376 896.857 -241.732 890.13 -239.798"/><text x="932" y="-221.381" fill="#000" font-family="Times,serif" font-size="14" text-anchor="middle">has_crimes</text></g><g id="edge48" class="edge"><title>http://dig.isi.edu/LA_Charges-&gt;http://dig.isi.edu/BJSCodes</title><path fill="none" stroke="#000" d="M1259.6204,-278.1064C1219.5255,-288.2288 1158.8712,-303.4111 1106,-316.1076 1073.8837,-323.8201 1037.7714,-332.1864 1009.2586,-338.7212"/><polygon fill="#000" stroke="#000" points="1008.476 -335.31 999.509 -340.952 1010.038 -342.133 1008.476 -335.31"/><text x="1176" y="-304.908" fill="#000" font-family="Times,serif" font-size="14" text-anchor="middle">link</text></g><g id="edge37" class="edge"><title>http://dig.isi.edu/NY_Charges-&gt;http://dig.isi.edu/BJSCodes</title><path fill="none" stroke="#000" d="M899.8823,-282.949C910.6085,-295.3924 925.6116,-312.7974 937.6872,-326.8064"/><polygon fill="#000" stroke="#000" points="935.224 -329.31 944.404 -334.599 940.526 -324.739 935.224 -329.31"/><text x="940" y="-304.908" fill="#000" font-family="Times,serif" font-size="14" text-anchor="middle">link</text></g><g id="node12" class="node"><title>http://dig.isi.edu/Arkansas</title><ellipse cx="1034" cy="-183.317" fill="none" stroke="#e377c2" rx="47.253" ry="16.03"/><text x="1034" y="-179.617" fill="#000" font-family="Times,serif" font-size="14" text-anchor="middle">Arkansas</text></g><g id="node17" class="node"><title>http://dig.isi.edu/AR_Charges</title><ellipse cx="1026" cy="-266.844" fill="none" stroke="#e377c2" rx="60.623" ry="16.03"/><text x="1026" y="-263.144" fill="#000" font-family="Times,serif" font-size="14" text-anchor="middle">AR_Charges</text></g><g id="edge5" class="edge"><title>http://dig.isi.edu/Arkansas-&gt;http://dig.isi.edu/AR_Charges</title><path fill="none" stroke="#000" d="M1032.4195,-199.8195C1031.3128,-211.3741 1029.8103,-227.0609 1028.5372,-240.3537"/><polygon fill="#000" stroke="#000" points="1025.047 -240.088 1027.577 -250.376 1032.015 -240.756 1025.047 -240.088"/><text x="1061" y="-221.381" fill="#000" font-family="Times,serif" font-size="14" text-anchor="middle">has_crimes</text></g><g id="node13" class="node"><title>http://dig.isi.edu/ethnicity</title><ellipse cx="600" cy="-684.479" fill="none" stroke="#e377c2" rx="45.011" ry="16.03"/><text x="600" y="-680.779" fill="#000" font-family="Times,serif" font-size="14" text-anchor="middle">ethnicity</text></g><g id="node30" class="node"><title>65d54c0861af4ea3a40ca5956d90fc72</title><polygon fill="none" stroke="#ff7f0e" points="705 -798.242 651 -798.242 651 -759.242 705 -759.242 705 -798.242"/><text x="678" y="-767.042" fill="#000" font-family="Times,serif" font-size="14" text-anchor="middle">White</text></g><g id="edge49" class="edge"><title>http://dig.isi.edu/ethnicity-&gt;65d54c0861af4ea3a40ca5956d90fc72</title><path fill="none" stroke="#000" d="M617.5436,-699.8554C623.649,-705.5422 630.3731,-712.2012 636,-718.7422 644.5513,-728.6827 653.0286,-740.3509 660.1039,-750.7418"/><polygon fill="#000" stroke="#000" points="657.224 -752.731 665.688 -759.104 663.045 -748.844 657.224 -752.731"/><text x="664" y="-722.542" fill="#000" font-family="Times,serif" font-size="14" text-anchor="middle">group</text></g><g id="node31" class="node"><title>08e4368f96ff481789970bf5c3668b50</title><polygon fill="none" stroke="#ff7f0e" points="405 -798.242 351 -798.242 351 -759.242 405 -759.242 405 -798.242"/><text x="378" y="-767.042" fill="#000" font-family="Times,serif" font-size="14" text-anchor="middle">Other</text></g><g id="edge23" class="edge"><title>http://dig.isi.edu/ethnicity-&gt;08e4368f96ff481789970bf5c3668b50</title><path fill="none" stroke="#000" d="M558.2578,-690.8107C530.1947,-696.0277 492.8411,-704.8647 462,-718.7422 438.3913,-729.3653 435.0266,-736.6391 414,-751.7422 413.3813,-752.1866 412.7576,-752.6363 412.13,-753.0902"/><polygon fill="#000" stroke="#000" points="409.861 -750.414 403.862 -759.147 413.997 -756.061 409.861 -750.414"/><text x="478" y="-722.542" fill="#000" font-family="Times,serif" font-size="14" text-anchor="middle">group</text></g><g id="node33" class="node"><title>c29b165a240949efa9e98ec49a620ed0</title><polygon fill="none" stroke="#ff7f0e" points="477 -798.242 423 -798.242 423 -759.242 477 -759.242 477 -798.242"/><text x="450" y="-767.042" fill="#000" font-family="Times,serif" font-size="14" text-anchor="middle">Black</text></g><g id="edge56" class="edge"><title>http://dig.isi.edu/ethnicity-&gt;c29b165a240949efa9e98ec49a620ed0</title><path fill="none" stroke="#000" d="M566.4198,-695.3815C550.7898,-701.1855 532.3125,-709.1224 517,-718.7422 502.2495,-728.0089 487.631,-740.5938 475.8309,-751.8448"/><polygon fill="#000" stroke="#000" points="473.217 -749.505 468.51 -758.997 478.109 -754.512 473.217 -749.505"/><text x="533" y="-722.542" fill="#000" font-family="Times,serif" font-size="14" text-anchor="middle">group</text></g><g id="node40" class="node"><title>dec9e7e508c145faa2c92dc332380162</title><polygon fill="none" stroke="#ff7f0e" points="549 -798.242 495 -798.242 495 -759.242 549 -759.242 549 -798.242"/><text x="522" y="-767.042" fill="#000" font-family="Times,serif" font-size="14" text-anchor="middle">Asian</text></g><g id="edge32" class="edge"><title>http://dig.isi.edu/ethnicity-&gt;dec9e7e508c145faa2c92dc332380162</title><path fill="none" stroke="#000" d="M582.4564,-699.8554C576.351,-705.5422 569.6269,-712.2012 564,-718.7422 555.4487,-728.6827 546.9714,-740.3509 539.8961,-750.7418"/><polygon fill="#000" stroke="#000" points="536.955 -748.844 534.312 -759.104 542.776 -752.731 536.955 -748.844"/><text x="580" y="-722.542" fill="#000" font-family="Times,serif" font-size="14" text-anchor="middle">group</text></g><g id="node41" class="node"><title>7011f1a58e764dbb929ad7acf56f0c2a</title><polygon fill="none" stroke="#ff7f0e" points="632.5 -798.242 567.5 -798.242 567.5 -759.242 632.5 -759.242 632.5 -798.242"/><text x="600" y="-767.042" fill="#000" font-family="Times,serif" font-size="14" text-anchor="middle">Hispanic</text></g><g id="edge26" class="edge"><title>http://dig.isi.edu/ethnicity-&gt;7011f1a58e764dbb929ad7acf56f0c2a</title><path fill="none" stroke="#000" d="M600,-700.8982C600,-714.0127 600,-732.7464 600,-748.5495"/><polygon fill="#000" stroke="#000" points="596.5 -748.917 600 -758.917 603.5 -748.917 596.5 -748.917"/><text x="616" y="-722.542" fill="#000" font-family="Times,serif" font-size="14" text-anchor="middle">group</text></g><g id="node14" class="node"><title>http://dig.isi.edu/Michigan</title><ellipse cx="1151" cy="-183.317" fill="none" stroke="#e377c2" rx="48.582" ry="16.03"/><text x="1151" y="-179.617" fill="#000" font-family="Times,serif" font-size="14" text-anchor="middle">Michigan</text></g><g id="node23" class="node"><title>http://dig.isi.edu/MI_Charges</title><ellipse cx="1165" cy="-266.844" fill="none" stroke="#e377c2" rx="60.208" ry="16.03"/><text x="1165" y="-263.144" fill="#000" font-family="Times,serif" font-size="14" text-anchor="middle">MI_Charges</text></g><g id="edge57" class="edge"><title>http://dig.isi.edu/Michigan-&gt;http://dig.isi.edu/MI_Charges</title><path fill="none" stroke="#000" d="M1153.7659,-199.8195C1155.7026,-211.3741 1158.3319,-227.0609 1160.5599,-240.3537"/><polygon fill="#000" stroke="#000" points="1157.135 -241.092 1162.24 -250.376 1164.039 -239.935 1157.135 -241.092"/><text x="1190" y="-221.381" fill="#000" font-family="Times,serif" font-size="14" text-anchor="middle">has_crimes</text></g><g id="node15" class="node"><title>http://dig.isi.edu/United_States</title><ellipse cx="1092" cy="-16.264" fill="none" stroke="#1f77b4" rx="65.108" ry="16.03"/><text x="1092" y="-12.563" fill="#000" font-family="Times,serif" font-size="14" text-anchor="middle">United_States</text></g><g id="node19" class="node"><title>http://dig.isi.edu/State</title><ellipse cx="1092" cy="-99.79" fill="none" stroke="#e377c2" rx="31.226" ry="16.03"/><text x="1092" y="-96.09" fill="#000" font-family="Times,serif" font-size="14" text-anchor="middle">State</text></g><g id="edge47" class="edge"><title>http://dig.isi.edu/United_States-&gt;http://dig.isi.edu/State</title><path fill="none" stroke="#000" d="M1092,-32.7657C1092,-44.3203 1092,-60.0071 1092,-73.2998"/><polygon fill="#000" stroke="#000" points="1088.5 -73.322 1092 -83.322 1095.5 -73.323 1088.5 -73.322"/><text x="1117" y="-54.327" fill="#000" font-family="Times,serif" font-size="14" text-anchor="middle">has_state</text></g><g id="edge46" class="edge"><title>http://dig.isi.edu/placeholder_bonds-&gt;http://dig.isi.edu/bond_amount</title><path fill="none" stroke="#000" d="M675.6853,-613.7287C612.7204,-629.1067 507.3923,-654.831 442.5822,-670.6596"/><polygon fill="#000" stroke="#000" points="441.425 -667.339 432.541 -673.112 443.086 -674.139 441.425 -667.339"/><text x="597.5" y="-639.015" fill="#000" font-family="Times,serif" font-size="14" text-anchor="middle">has</text></g><g id="edge10" class="edge"><title>http://dig.isi.edu/placeholder_bonds-&gt;http://dig.isi.edu/ethnicity</title><path fill="none" stroke="#000" d="M666.1007,-612.0186C650.6937,-617.0906 635.1311,-624.474 623,-635.2153 615.9906,-641.4217 610.9601,-650.2141 607.4272,-658.6569"/><polygon fill="#000" stroke="#000" points="604.074 -657.638 603.939 -668.231 610.651 -660.034 604.074 -657.638"/><text x="632.5" y="-639.015" fill="#000" font-family="Times,serif" font-size="14" text-anchor="middle">has</text></g><g id="node18" class="node"><title>http://dig.isi.edu/gender</title><ellipse cx="752" cy="-684.479" fill="none" stroke="#e377c2" rx="37.453" ry="16.03"/><text x="752" y="-680.779" fill="#000" font-family="Times,serif" font-size="14" text-anchor="middle">gender</text></g><g id="edge25" class="edge"><title>http://dig.isi.edu/placeholder_bonds-&gt;http://dig.isi.edu/gender</title><path fill="none" stroke="#000" d="M719.4199,-617.3742C715.4901,-627.1739 712.5845,-639.7135 717,-650.2153 718.9569,-654.8695 721.8888,-659.2079 725.2382,-663.1267"/><polygon fill="#000" stroke="#000" points="723.019 -665.862 732.521 -670.548 728.015 -660.959 723.019 -665.862"/><text x="726.5" y="-639.015" fill="#000" font-family="Times,serif" font-size="14" text-anchor="middle">has</text></g><g id="node25" class="node"><title>http://dig.isi.edu/time_spent_in_jail</title><ellipse cx="891" cy="-684.479" fill="none" stroke="#e377c2" rx="83.377" ry="16.03"/><text x="891" y="-680.779" fill="#000" font-family="Times,serif" font-size="14" text-anchor="middle">time_spent_in_jail</text></g><g id="edge17" class="edge"><title>http://dig.isi.edu/placeholder_bonds-&gt;http://dig.isi.edu/time_spent_in_jail</title><path fill="none" stroke="#000" d="M751.6312,-616.6659C760.0419,-622.3844 769.5252,-628.9772 778,-635.2153 786.6647,-641.5931 787.6046,-644.9733 797,-650.2153 808.8457,-656.8244 822.2117,-662.5897 835.0681,-667.411"/><polygon fill="#000" stroke="#000" points="834.172 -670.809 844.766 -670.912 836.549 -664.225 834.172 -670.809"/><text x="806.5" y="-639.015" fill="#000" font-family="Times,serif" font-size="14" text-anchor="middle">has</text></g><g id="node27" class="node"><title>http://dig.isi.edu/race</title><ellipse cx="1020" cy="-684.479" fill="none" stroke="#e377c2" rx="27.654" ry="16.03"/><text x="1020" y="-680.779" fill="#000" font-family="Times,serif" font-size="14" text-anchor="middle">race</text></g><g id="edge15" class="edge"><title>http://dig.isi.edu/placeholder_bonds-&gt;http://dig.isi.edu/race</title><path fill="none" stroke="#000" d="M791.9768,-611.5991C814.8178,-616.8622 840.2611,-624.4634 862,-635.2153 871.6438,-639.985 871.1827,-645.8137 881,-650.2153 923.0051,-669.0483 938.9468,-654.8578 983,-668.2153 984.9137,-668.7956 986.8599,-669.4482 988.8077,-670.1499"/><polygon fill="#000" stroke="#000" points="987.83 -673.527 998.416 -673.959 990.41 -667.02 987.83 -673.527"/><text x="890.5" y="-639.015" fill="#000" font-family="Times,serif" font-size="14" text-anchor="middle">has</text></g><g id="node28" class="node"><title>http://dig.isi.edu/age</title><ellipse cx="1093" cy="-684.479" fill="none" stroke="#e377c2" rx="27" ry="16.03"/><text x="1093" y="-680.779" fill="#000" font-family="Times,serif" font-size="14" text-anchor="middle">age</text></g><g id="edge7" class="edge"><title>http://dig.isi.edu/placeholder_bonds-&gt;http://dig.isi.edu/age</title><path fill="none" stroke="#000" d="M790.6868,-611.8664C801.1412,-613.6669 811.8753,-615.5035 822,-617.2153 870.4135,-625.4008 883.4667,-622.9087 931,-635.2153 950.1887,-640.1834 953.9345,-644.7936 973,-650.2153 1009.7248,-660.6588 1020.7299,-656.288 1057,-668.2153 1058.8568,-668.8259 1060.7463,-669.5021 1062.6383,-670.2217"/><polygon fill="#000" stroke="#000" points="1061.399 -673.497 1071.978 -674.079 1064.072 -667.027 1061.399 -673.497"/><text x="982.5" y="-639.015" fill="#000" font-family="Times,serif" font-size="14" text-anchor="middle">has</text></g><g id="edge59" class="edge"><title>http://dig.isi.edu/AR_Charges-&gt;http://dig.isi.edu/BJSCodes</title><path fill="none" stroke="#000" d="M1012.8889,-282.949C1002.7587,-295.3924 988.5891,-312.7974 977.1843,-326.8064"/><polygon fill="#000" stroke="#000" points="974.439 -324.634 970.84 -334.599 979.868 -329.054 974.439 -324.634"/><text x="1010" y="-304.908" fill="#000" font-family="Times,serif" font-size="14" text-anchor="middle">link</text></g><g id="node29" class="node"><title>cd32900390214261afca6e66ca141dbd</title><polygon fill="none" stroke="#ff7f0e" points="853 -798.242 799 -798.242 799 -759.242 853 -759.242 853 -798.242"/><text x="826" y="-767.042" fill="#000" font-family="Times,serif" font-size="14" text-anchor="middle">_Other</text></g><g id="edge13" class="edge"><title>http://dig.isi.edu/gender-&gt;cd32900390214261afca6e66ca141dbd</title><path fill="none" stroke="#000" d="M768.9817,-699.0368C775.2976,-704.851 782.3065,-711.8063 788,-718.7422 795.987,-728.4721 803.6472,-739.984 809.971,-750.3091"/><polygon fill="#000" stroke="#000" points="807.029 -752.209 815.159 -759.003 813.04 -748.622 807.029 -752.209"/><text x="815" y="-722.542" fill="#000" font-family="Times,serif" font-size="14" text-anchor="middle">group</text></g><g id="node35" class="node"><title>a98ef1359bc944dea7804f52f48d581d</title><polygon fill="none" stroke="#ff7f0e" points="925 -798.242 871 -798.242 871 -759.242 925 -759.242 925 -798.242"/><text x="898" y="-767.042" fill="#000" font-family="Times,serif" font-size="14" text-anchor="middle">Male</text></g><g id="edge19" class="edge"><title>http://dig.isi.edu/gender-&gt;a98ef1359bc944dea7804f52f48d581d</title><path fill="none" stroke="#000" d="M780.7754,-695.0627C800.8508,-702.6893 825.6537,-712.6687 835,-718.7422 849.0977,-727.9033 862.8466,-740.4415 873.8847,-751.6879"/><polygon fill="#000" stroke="#000" points="871.628 -754.393 881.064 -759.21 876.692 -749.56 871.628 -754.393"/><text x="871" y="-722.542" fill="#000" font-family="Times,serif" font-size="14" text-anchor="middle">group</text></g><g id="node39" class="node"><title>368c430d50be4d8d8240e7ae908587db</title><polygon fill="none" stroke="#ff7f0e" points="780.5 -798.242 723.5 -798.242 723.5 -759.242 780.5 -759.242 780.5 -798.242"/><text x="752" y="-767.042" fill="#000" font-family="Times,serif" font-size="14" text-anchor="middle">Female</text></g><g id="edge54" class="edge"><title>http://dig.isi.edu/gender-&gt;368c430d50be4d8d8240e7ae908587db</title><path fill="none" stroke="#000" d="M752,-700.8982C752,-714.0127 752,-732.7464 752,-748.5495"/><polygon fill="#000" stroke="#000" points="748.5 -748.917 752 -758.917 755.5 -748.917 748.5 -748.917"/><text x="768" y="-722.542" fill="#000" font-family="Times,serif" font-size="14" text-anchor="middle">group</text></g><g id="edge22" class="edge"><title>http://dig.isi.edu/State-&gt;http://dig.isi.edu/Louisiana</title><path fill="none" stroke="#000" d="M1118.8248,-108.3788C1138.2671,-114.8409 1165.0598,-124.2382 1188,-134.0538 1209.417,-143.2177 1232.7437,-154.8728 1251.2643,-164.5456"/><polygon fill="#000" stroke="#000" points="1249.729 -167.693 1260.207 -169.257 1252.991 -161.5 1249.729 -167.693"/><text x="1245.5" y="-137.854" fill="#000" font-family="Times,serif" font-size="14" text-anchor="middle">have_data</text></g><g id="edge45" class="edge"><title>http://dig.isi.edu/State-&gt;http://dig.isi.edu/NewYork</title><path fill="none" stroke="#000" d="M1064.7054,-107.9325C1044.9685,-114.1785 1017.8648,-123.5009 995,-134.0538 976.6172,-142.5382 957.0067,-153.7462 941.2595,-163.3279"/><polygon fill="#000" stroke="#000" points="939.146 -160.519 932.473 -168.749 942.821 -166.477 939.146 -160.519"/><text x="1022.5" y="-137.854" fill="#000" font-family="Times,serif" font-size="14" text-anchor="middle">have_data</text></g><g id="edge1" class="edge"><title>http://dig.isi.edu/State-&gt;http://dig.isi.edu/Arkansas</title><path fill="none" stroke="#000" d="M1078.9911,-114.7876C1074.1032,-120.6558 1068.6165,-127.5332 1064,-134.0538 1058.5935,-141.6903 1053.1371,-150.3151 1048.3875,-158.1894"/><polygon fill="#000" stroke="#000" points="1045.264 -156.596 1043.182 -166.984 1051.287 -160.161 1045.264 -156.596"/><text x="1091.5" y="-137.854" fill="#000" font-family="Times,serif" font-size="14" text-anchor="middle">have_data</text></g><g id="edge51" class="edge"><title>http://dig.isi.edu/State-&gt;http://dig.isi.edu/Michigan</title><path fill="none" stroke="#000" d="M1104.4005,-114.9125C1109.0962,-120.796 1114.4124,-127.6513 1119,-134.0538 1124.6106,-141.8842 1130.4372,-150.6426 1135.5567,-158.5783"/><polygon fill="#000" stroke="#000" points="1132.66 -160.545 1140.987 -167.095 1138.562 -156.782 1132.66 -160.545"/><text x="1156.5" y="-137.854" fill="#000" font-family="Times,serif" font-size="14" text-anchor="middle">have_data</text></g><g id="edge40" class="edge"><title>http://dig.isi.edu/BJSCodes-&gt;http://dig.isi.edu/BJSCategory</title><path fill="none" stroke="#000" d="M932.0456,-364.5403C907.0747,-378.1726 869.0982,-398.905 841.1675,-414.1532"/><polygon fill="#000" stroke="#000" points="839.214 -411.232 832.114 -419.096 842.568 -417.376 839.214 -411.232"/><text x="907" y="-388.435" fill="#000" font-family="Times,serif" font-size="14" text-anchor="middle">link</text></g><g id="node36" class="node"><title>38b3c5ae21ab495f8682cd1c39b91590</title><polygon fill="none" stroke="#ff7f0e" points="62 -910.742 0 -910.742 0 -856.742 62 -856.742 62 -910.742"/><text x="31" y="-879.542" fill="#000" font-family="Times,serif" font-size="14" text-anchor="middle">&lt;=</text><text x="31" y="-864.542" fill="#000" font-family="Times,serif" font-size="14" text-anchor="middle">20_days</text></g><g id="edge52" class="edge"><title>http://dig.isi.edu/more_than_1000-&gt;38b3c5ae21ab495f8682cd1c39b91590</title><path fill="none" stroke="#000" d="M85.8438,-795.1485C77.1294,-809.2255 64.261,-830.013 53.179,-847.9146"/><polygon fill="#000" stroke="#000" points="50.196 -846.084 47.908 -856.429 56.148 -849.768 50.196 -846.084"/><text x="84" y="-827.542" fill="#000" font-family="Times,serif" font-size="14" text-anchor="middle">group</text></g><g id="node37" class="node"><title>0b92a09e8a264c13b344cd43edf908b5</title><polygon fill="none" stroke="#ff7f0e" points="150 -903.242 80 -903.242 80 -864.242 150 -864.242 150 -903.242"/><text x="115" y="-872.042" fill="#000" font-family="Times,serif" font-size="14" text-anchor="middle">&gt;20_days</text></g><g id="edge24" class="edge"><title>http://dig.isi.edu/more_than_1000-&gt;0b92a09e8a264c13b344cd43edf908b5</title><path fill="none" stroke="#000" d="M98.9688,-795.1485C101.822,-810.9162 106.1986,-835.103 109.6585,-854.2232"/><polygon fill="#000" stroke="#000" points="106.246 -855.022 111.471 -864.239 113.134 -853.775 106.246 -855.022"/><text x="123" y="-827.542" fill="#000" font-family="Times,serif" font-size="14" text-anchor="middle">group</text></g><g id="edge18" class="edge"><title>http://dig.isi.edu/meaningful_bonds-&gt;http://dig.isi.edu/bond_amount</title><path fill="none" stroke="#000" d="M852.5187,-612.0116C842.0135,-613.8131 831.201,-615.6121 821,-617.2153 763.8131,-626.2026 748.5554,-622.8621 692,-635.2153 669.3337,-640.1662 664.68,-645.3278 642,-650.2153 580.3578,-663.4992 509.1901,-672.5279 457.5624,-677.9679"/><polygon fill="#000" stroke="#000" points="457.093 -674.498 447.506 -679.008 457.813 -681.461 457.093 -674.498"/><text x="701.5" y="-639.015" fill="#000" font-family="Times,serif" font-size="14" text-anchor="middle">has</text></g><g id="edge41" class="edge"><title>http://dig.isi.edu/meaningful_bonds-&gt;http://dig.isi.edu/ethnicity</title><path fill="none" stroke="#000" d="M850.5066,-611.6139C813.9226,-618.344 771.9236,-627.2425 755,-635.2153 745.2671,-639.8005 745.6522,-645.4626 736,-650.2153 709.8695,-663.0818 678.4646,-671.4052 652.4198,-676.6219"/><polygon fill="#000" stroke="#000" points="651.525 -673.229 642.356 -678.538 652.835 -680.106 651.525 -673.229"/><text x="764.5" y="-639.015" fill="#000" font-family="Times,serif" font-size="14" text-anchor="middle">has</text></g><g id="edge53" class="edge"><title>http://dig.isi.edu/meaningful_bonds-&gt;http://dig.isi.edu/gender</title><path fill="none" stroke="#000" d="M880.6743,-615.9523C868.6299,-621.6553 855.039,-628.4217 843,-635.2153 832.3715,-641.213 830.5768,-644.1268 820,-650.2153 809.3666,-656.3364 797.5054,-662.5228 786.7044,-667.9225"/><polygon fill="#000" stroke="#000" points="784.961 -664.88 777.543 -672.444 788.059 -671.157 784.961 -664.88"/><text x="852.5" y="-639.015" fill="#000" font-family="Times,serif" font-size="14" text-anchor="middle">has</text></g><g id="edge43" class="edge"><title>http://dig.isi.edu/meaningful_bonds-&gt;http://dig.isi.edu/time_spent_in_jail</title><path fill="none" stroke="#000" d="M911.327,-617.5352C909.6027,-627.1683 907.1027,-639.4841 904,-650.2153 903.2313,-652.874 902.3485,-655.6185 901.4125,-658.3428"/><polygon fill="#000" stroke="#000" points="898.053 -657.339 897.899 -667.932 904.626 -659.747 898.053 -657.339"/><text x="917.5" y="-639.015" fill="#000" font-family="Times,serif" font-size="14" text-anchor="middle">has</text></g><g id="edge39" class="edge"><title>http://dig.isi.edu/meaningful_bonds-&gt;http://dig.isi.edu/race</title><path fill="none" stroke="#000" d="M962.1181,-614.3409C974.22,-619.4107 986.4637,-626.2125 996,-635.2153 1002.7622,-641.5992 1007.8595,-650.2905 1011.5774,-658.5962"/><polygon fill="#000" stroke="#000" points="1008.374 -660.013 1015.325 -668.008 1014.877 -657.423 1008.374 -660.013"/><text x="1016.5" y="-639.015" fill="#000" font-family="Times,serif" font-size="14" text-anchor="middle">has</text></g><g id="edge29" class="edge"><title>http://dig.isi.edu/meaningful_bonds-&gt;http://dig.isi.edu/age</title><path fill="none" stroke="#000" d="M970.2232,-612.9884C989.7633,-618.3463 1011.4231,-625.6517 1030,-635.2153 1044.7017,-642.7839 1059.3591,-653.9721 1070.8317,-663.7742"/><polygon fill="#000" stroke="#000" points="1068.76 -666.613 1078.578 -670.595 1073.386 -661.36 1068.76 -666.613"/><text x="1061.5" y="-639.015" fill="#000" font-family="Times,serif" font-size="14" text-anchor="middle">has</text></g><g id="edge8" class="edge"><title>http://dig.isi.edu/MI_Charges-&gt;http://dig.isi.edu/BJSCodes</title><path fill="none" stroke="#000" d="M1131.2812,-280.4501C1095.1618,-295.0247 1037.8195,-318.163 999.0878,-333.7917"/><polygon fill="#000" stroke="#000" points="997.63 -330.606 989.666 -337.594 1000.249 -337.097 997.63 -330.606"/><text x="1091" y="-304.908" fill="#000" font-family="Times,serif" font-size="14" text-anchor="middle">link</text></g><g id="edge44" class="edge"><title>http://dig.isi.edu/property-&gt;http://dig.isi.edu/placeholder_bonds</title><path fill="none" stroke="#000" d="M1015.5974,-531.9117C998.5975,-543.2402 973.3195,-558.4123 949,-566.6884 895.0309,-585.0544 878.3158,-575.8279 822,-584.6884 814.9138,-585.8033 807.5347,-587.0065 800.1646,-588.2362"/><polygon fill="#000" stroke="#000" points="799.428 -584.811 790.148 -589.924 800.591 -591.714 799.428 -584.811"/><text x="991.5" y="-555.488" fill="#000" font-family="Times,serif" font-size="14" text-anchor="middle">has</text></g><g id="edge55" class="edge"><title>http://dig.isi.edu/property-&gt;http://dig.isi.edu/meaningful_bonds</title><path fill="none" stroke="#000" d="M1031.6564,-533.6149C1028.018,-544.3298 1021.8104,-557.9635 1012,-566.6884 1003.0564,-574.6424 992.1585,-580.7754 980.9219,-585.497"/><polygon fill="#000" stroke="#000" points="979.519 -582.287 971.439 -589.14 982.029 -588.821 979.519 -582.287"/><text x="1032.5" y="-555.488" fill="#000" font-family="Times,serif" font-size="14" text-anchor="middle">has</text></g><g id="node32" class="node"><title>4ab3e5fb825c4e7caf673539b29af4a1</title><polygon fill="none" stroke="#ff7f0e" points="1005 -805.742 943 -805.742 943 -751.742 1005 -751.742 1005 -805.742"/><text x="974" y="-774.542" fill="#000" font-family="Times,serif" font-size="14" text-anchor="middle">&lt;=</text><text x="974" y="-759.542" fill="#000" font-family="Times,serif" font-size="14" text-anchor="middle">20_days</text></g><g id="edge4" class="edge"><title>http://dig.isi.edu/time_spent_in_jail-&gt;4ab3e5fb825c4e7caf673539b29af4a1</title><path fill="none" stroke="#000" d="M913.5727,-700.3374C920.5201,-705.7595 927.93,-712.1343 934,-718.7422 940.7258,-726.064 947.128,-734.617 952.7601,-742.9328"/><polygon fill="#000" stroke="#000" points="949.929 -744.998 958.332 -751.451 955.787 -741.167 949.929 -744.998"/><text x="962" y="-722.542" fill="#000" font-family="Times,serif" font-size="14" text-anchor="middle">group</text></g><g id="node38" class="node"><title>b9120e46b9464270a88944bde084cafe</title><polygon fill="none" stroke="#ff7f0e" points="1093 -798.242 1023 -798.242 1023 -759.242 1093 -759.242 1093 -798.242"/><text x="1058" y="-767.042" fill="#000" font-family="Times,serif" font-size="14" text-anchor="middle">&gt;20_days</text></g><g id="edge3" class="edge"><title>http://dig.isi.edu/time_spent_in_jail-&gt;b9120e46b9464270a88944bde084cafe</title><path fill="none" stroke="#000" d="M935.7424,-698.2246C950.8839,-703.6772 967.5956,-710.6054 982,-718.7422 998.6403,-728.142 1015.4895,-741.0261 1029.0803,-752.446"/><polygon fill="#000" stroke="#000" points="1026.81 -755.11 1036.68 -758.963 1031.367 -749.797 1026.81 -755.11"/><text x="1021" y="-722.542" fill="#000" font-family="Times,serif" font-size="14" text-anchor="middle">group</text></g><g id="node34" class="node"><title>646215a49c434d388a6785c12e4a42b9</title><polygon fill="none" stroke="#ff7f0e" points="277 -903.242 207 -903.242 207 -864.242 277 -864.242 277 -903.242"/><text x="242" y="-872.042" fill="#000" font-family="Times,serif" font-size="14" text-anchor="middle">&gt;20_days</text></g><g id="edge36" class="edge"><title>http://dig.isi.edu/less_than_1000-&gt;646215a49c434d388a6785c12e4a42b9</title><path fill="none" stroke="#000" d="M258.875,-795.1485C255.8716,-810.9162 251.2646,-835.103 247.6227,-854.2232"/><polygon fill="#000" stroke="#000" points="244.148 -853.76 245.715 -864.239 251.024 -855.07 244.148 -853.76"/><text x="270" y="-827.542" fill="#000" font-family="Times,serif" font-size="14" text-anchor="middle">group</text></g><g id="node42" class="node"><title>7c3ae0f9dc1d4d85b2673cb0ed76e257</title><polygon fill="none" stroke="#ff7f0e" points="357 -910.742 295 -910.742 295 -856.742 357 -856.742 357 -910.742"/><text x="326" y="-879.542" fill="#000" font-family="Times,serif" font-size="14" text-anchor="middle">&lt;=</text><text x="326" y="-864.542" fill="#000" font-family="Times,serif" font-size="14" text-anchor="middle">20_days</text></g><g id="edge21" class="edge"><title>http://dig.isi.edu/less_than_1000-&gt;7c3ae0f9dc1d4d85b2673cb0ed76e257</title><path fill="none" stroke="#000" d="M272.1725,-794.9496C277.5132,-803.4942 284.1467,-814.1633 290,-823.7422 294.7402,-831.4995 299.7854,-839.8488 304.5522,-847.7811"/><polygon fill="#000" stroke="#000" points="301.64 -849.73 309.785 -856.506 307.643 -846.13 301.64 -849.73"/><text x="315" y="-827.542" fill="#000" font-family="Times,serif" font-size="14" text-anchor="middle">group</text></g></g></svg>